PathFileType	4	(X/Y/Z)	 New Session 106.trc
DataRate	CameraRate	NumFrames	NumMarkers	Units	OrigDataRate	OrigDataStartFrame	OrigNumFrames
100	100	14	14	m	100	182	724
Frame#	Time	C7			T8			IJ			PX			AA			AC			AI			TS			SC			GH			LE			ME			US			RS			
		X1	Y1	Z1	X2	Y2	Z2	X3	Y3	Z3	X4	Y4	Z4	X5	Y5	Z5	X6	Y6	Z6	X7	Y7	Z7	X8	Y8	Z8	X9	Y9	Z9	X10	Y10	Z10	X11	Y11	Z11	X12	Y12	Z12	X13	Y13	Z13	X14	Y14	Z14	
182	1.8200	0.017470	0.104050	0.157941	0.017548	-0.110595	0.228059	-0.002397	0.000758	-0.008157	0.002457	-0.142929	-0.075068	0.204186	0.020113	0.152893	0.157848	0.061368	0.078196	0.092246	0.028041	0.200551	0.097116	-0.091819	0.226726	0.022131	0.009646	-0.003528	0.217326	0.035501	0.114942	0.331262	-0.231982	0.086872	0.255412	-0.291726	0.105355	0.319835	-0.384015	-0.149351	0.301287	-0.309821	-0.170057	
183	1.8300	0.017180	0.104128	0.157806	0.017409	-0.110505	0.228007	-0.002570	0.000668	-0.008299	0.002369	-0.142972	-0.075034	0.203931	0.020269	0.152845	0.157598	0.061534	0.078138	0.092062	0.028250	0.200551	0.097060	-0.091599	0.226583	0.021900	0.009642	-0.003586	0.217052	0.035770	0.114989	0.334282	-0.229602	0.086520	0.259204	-0.290507	0.104622	0.324199	-0.381097	-0.150302	0.304728	-0.307017	-0.170775	
184	1.8400	0.016852	0.104204	0.157679	0.017249	-0.110424	0.227950	-0.002734	0.000594	-0.008438	0.002279	-0.143017	-0.074985	0.203639	0.020409	0.152822	0.157331	0.061714	0.078108	0.091811	0.028401	0.200488	0.096971	-0.091380	0.226472	0.021640	0.009654	-0.003636	0.216733	0.036068	0.115079	0.337551	-0.227001	0.086181	0.263285	-0.289110	0.103854	0.328947	-0.377819	-0.151339	0.308407	-0.303872	-0.171525	
185	1.8500	0.016503	0.104267	0.157559	0.017066	-0.110354	0.227906	-0.002909	0.000546	-0.008564	0.002188	-0.143065	-0.074927	0.203331	0.020532	0.152806	0.157055	0.061932	0.078091	0.091518	0.028521	0.200428	0.096852	-0.091177	0.226372	0.021407	0.009661	-0.003684	0.216364	0.036393	0.115208	0.341018	-0.224177	0.085835	0.267641	-0.287503	0.103067	0.334031	-0.374128	-0.152470	0.312312	-0.300371	-0.172295	
186	1.8600	0.016149	0.104323	0.157450	0.016858	-0.110295	0.227879	-0.003102	0.000519	-0.008676	0.002095	-0.143115	-0.074865	0.202999	0.020660	0.152802	0.156765	0.062194	0.078081	0.091188	0.028634	0.200401	0.096712	-0.091004	0.226256	0.021224	0.009663	-0.003728	0.215957	0.036757	0.115370	0.344630	-0.221113	0.085475	0.272267	-0.285672	0.102251	0.339413	-0.370003	-0.153676	0.316429	-0.296502	-0.173081	
187	1.8700	0.015800	0.104379	0.157354	0.016628	-0.110244	0.227865	-0.003297	0.000501	-0.008767	0.002007	-0.143165	-0.074803	0.202615	0.020817	0.152825	0.156456	0.062478	0.078081	0.090830	0.028756	0.200398	0.096561	-0.090869	0.226102	0.021077	0.009669	-0.003766	0.215533	0.037179	0.115555	0.348352	-0.217787	0.085112	0.277153	-0.283612	0.101398	0.345105	-0.365450	-0.154937	0.320740	-0.292261	-0.173883	
188	1.8800	0.015449	0.104442	0.157260	0.016379	-0.110196	0.227853	-0.003476	0.000484	-0.008836	0.001941	-0.143215	-0.074748	0.202191	0.021018	0.152884	0.156124	0.062772	0.078102	0.090463	0.028890	0.200411	0.096407	-0.090774	0.225894	0.020936	0.009682	-0.003806	0.215108	0.037670	0.115746	0.352172	-0.214178	0.084751	0.282277	-0.281326	0.100529	0.351112	-0.360474	-0.156239	0.325223	-0.287649	-0.174702	
189	1.8900	0.015083	0.104510	0.157164	0.016114	-0.110149	0.227830	-0.003631	0.000470	-0.008886	0.001901	-0.143267	-0.074705	0.201768	0.021261	0.152978	0.155773	0.063080	0.078151	0.090093	0.029030	0.200425	0.096251	-0.090708	0.225633	0.020800	0.009693	-0.003860	0.214681	0.038228	0.115934	0.356113	-0.210259	0.084386	0.287642	-0.278812	0.099678	0.357368	-0.355085	-0.157556	0.329859	-0.282672	-0.175533	
190	1.9000	0.014691	0.104576	0.157071	0.015839	-0.110098	0.227787	-0.003765	0.000469	-0.008922	0.001873	-0.143320	-0.074670	0.201351	0.021543	0.153101	0.155402	0.063408	0.078230	0.089714	0.029163	0.200424	0.096081	-0.090643	0.225358	0.020680	0.009690	-0.003931	0.214234	0.038848	0.116125	0.360224	-0.206000	0.084009	0.293270	-0.276062	0.098850	0.363786	-0.349301	-0.158900	0.334635	-0.277335	-0.176367	
191	1.9100	0.014262	0.104636	0.156986	0.015559	-0.110044	0.227721	-0.003885	0.000488	-0.008951	0.001841	-0.143375	-0.074639	0.200911	0.021870	0.153251	0.155008	0.063763	0.078333	0.089338	0.029290	0.200418	0.095883	-0.090544	0.225135	0.020584	0.009672	-0.004011	0.213740	0.039525	0.116342	0.364521	-0.201387	0.083615	0.299142	-0.273046	0.098037	0.370338	-0.343106	-0.160277	0.339547	-0.271641	-0.177186	
192	1.9200	0.013801	0.104695	0.156909	0.015279	-0.109987	0.227634	-0.004006	0.000525	-0.008974	0.001799	-0.143428	-0.074613	0.200434	0.022245	0.153438	0.154575	0.064154	0.078462	0.088983	0.029421	0.200410	0.095654	-0.090393	0.225007	0.020505	0.009640	-0.004083	0.213184	0.040268	0.116610	0.368971	-0.196428	0.083197	0.305208	-0.269710	0.097247	0.377009	-0.336469	-0.161662	0.344599	-0.265590	-0.177975	
193	1.9300	0.013329	0.104754	0.156843	0.015002	-0.109930	0.227535	-0.004142	0.000567	-0.008994	0.001753	-0.143479	-0.074593	0.199939	0.022661	0.153654	0.154093	0.064588	0.078627	0.088636	0.029559	0.200425	0.095408	-0.090204	0.224959	0.020428	0.009606	-0.004140	0.212577	0.041094	0.116940	0.373491	-0.191139	0.082753	0.311428	-0.266042	0.096491	0.383803	-0.329381	-0.163016	0.349780	-0.259190	-0.178724	
194	1.9400	0.012860	0.104812	0.156790	0.014730	-0.109871	0.227439	-0.004296	0.000603	-0.009014	0.001707	-0.143527	-0.074570	0.199457	0.023131	0.153871	0.153552	0.065065	0.078852	0.088240	0.029692	0.200475	0.095160	-0.090007	0.224934	0.020335	0.009584	-0.004187	0.211942	0.042016	0.117317	0.377995	-0.185538	0.082298	0.317771	-0.262063	0.095770	0.390676	-0.321885	-0.164331	0.355044	-0.252456	-0.179427	
195	1.9500	0.012381	0.104866	0.156746	0.014464	-0.109813	0.227354	-0.004455	0.000632	-0.009037	0.001662	-0.143574	-0.074541	0.198984	0.023683	0.154082	0.152957	0.065583	0.079140	0.087755	0.029809	0.200532	0.094924	-0.089823	0.224877	0.020222	0.009585	-0.004236	0.211287	0.043040	0.117726	0.382412	-0.179647	0.081863	0.324199	-0.257777	0.095076	0.397625	-0.313987	-0.165606	0.360313	-0.245412	-0.180088	
